<svg width="18" height="18" viewBox="0 0 18 18" fill="none" xmlns="http://www.w3.org/2000/svg">
<path d="M16.1648 3C16.0967 2.99298 16.028 2.99298 15.9598 3H1.95982C1.8701 3.00138 1.78096 3.01484 1.69482 3.04L8.91982 10.235L16.1648 3Z" fill="#85B1D6"/>
<path d="M16.9048 3.695L9.62484 10.945C9.43748 11.1313 9.18403 11.2358 8.91984 11.2358C8.65566 11.2358 8.40221 11.1313 8.21484 10.945L0.999844 3.75C0.977663 3.83152 0.965903 3.91552 0.964844 4V14C0.964844 14.2652 1.0702 14.5196 1.25774 14.7071C1.44527 14.8946 1.69963 15 1.96484 15H15.9648C16.2301 15 16.4844 14.8946 16.672 14.7071C16.8595 14.5196 16.9648 14.2652 16.9648 14V4C16.9609 3.89583 16.9406 3.79292 16.9048 3.695ZM2.64984 14H1.95484V13.285L5.58984 9.68L6.29484 10.385L2.64984 14ZM15.9548 14H15.2548L11.6098 10.385L12.3148 9.68L15.9498 13.285L15.9548 14Z" fill="#85B1D6"/>
</svg>
