<svg width="68" height="43" viewBox="0 0 68 43" fill="none" xmlns="http://www.w3.org/2000/svg">
<path d="M66.9106 15.0815C66.8188 14.1215 66.0589 13.3616 65.0989 13.2698C64.5611 13.2185 51.8412 12.0962 44.4341 19.5035C42.8279 21.1096 41.6234 22.9656 40.7213 24.8929C39.236 18.8106 36.5939 13.7643 32.9666 10.1371C28.496 5.66652 21.8699 2.69214 13.8051 1.53572C7.80421 0.675143 3.13148 1.10505 2.93555 1.12399C1.97558 1.21578 1.21568 1.97568 1.1239 2.93564C1.10508 3.13158 0.675175 7.80418 1.53562 13.8052C2.69204 21.87 5.6663 28.4962 10.137 32.9667C14.6076 37.4373 21.2337 40.4117 29.2986 41.5681C32.2687 41.994 34.9128 42.1037 36.8503 42.1037C38.606 42.1036 41.1646 42.0693 42.3426 42.0693C46.4622 42.0693 55.0842 41.3391 60.6769 35.7462C68.084 28.3393 66.962 15.6195 66.9106 15.0815ZM22.9745 20.1292C22.1889 19.3435 20.9148 19.3435 20.1288 20.1292C19.343 20.9148 19.343 22.189 20.1288 22.9749L35.2008 38.0468C29.3933 37.8512 19.375 36.5135 12.9826 30.1212C5.36453 22.5031 4.93269 9.66855 5.046 5.04378C9.6709 4.92312 22.4841 5.34606 30.121 12.983C36.4949 19.3569 37.838 29.3813 38.0403 35.195L22.9745 20.1292ZM57.8313 32.9007C54.2843 36.4477 48.9478 37.583 45.1129 37.9132L53.9783 29.0477C54.7641 28.262 54.7641 26.9879 53.9783 26.2019C53.1926 25.4163 51.9185 25.4163 51.1326 26.2019L42.2593 35.0752C42.5845 31.2453 43.7166 25.912 47.2796 22.3491C51.8958 17.7327 59.5427 17.2 62.9671 17.213C62.9795 20.6376 62.4468 28.2851 57.8313 32.9007Z" fill="#85B1D6" stroke="#85B1D6"/>
</svg>
