<svg width="66" height="66" viewBox="0 0 66 66" fill="none" xmlns="http://www.w3.org/2000/svg">
<path d="M33.7673 4.591C33.2748 4.39364 32.7252 4.39364 32.2327 4.591L7.61475 14.4374L17.5312 18.4015L42.9165 8.24988L33.7673 4.591ZM48.4688 10.4733L23.0835 20.6249L33 24.589L58.3853 14.4374L48.4688 10.4733ZM61.875 17.4857L35.0625 28.2107V60.889L61.875 50.164V17.4899V17.4857ZM30.9375 60.8931V28.2066L4.125 17.4857V50.1681L30.9375 60.8931ZM30.7024 0.758876C32.1773 0.168998 33.8227 0.168998 35.2976 0.758876L64.7048 12.5234C65.0871 12.6766 65.4148 12.9408 65.6456 13.2819C65.8765 13.623 65.9999 14.0255 66 14.4374V50.1681C65.9995 50.9924 65.752 51.7976 65.2896 52.4799C64.8271 53.1622 64.1708 53.6903 63.4054 53.9961L33.7673 65.8514C33.2748 66.0487 32.7252 66.0487 32.2327 65.8514L2.59875 53.9961C1.83254 53.691 1.17539 53.1631 0.712149 52.4808C0.24891 51.7984 0.000851108 50.9929 0 50.1681L0 14.4374C9.58648e-05 14.0255 0.123518 13.623 0.354366 13.2819C0.585215 12.9408 0.912915 12.6766 1.29525 12.5234L30.7024 0.758876Z" fill="#85B1D6" stroke="#85B1D6"/>
</svg>
