<svg width="19" height="34" viewBox="0 0 19 34" fill="none" xmlns="http://www.w3.org/2000/svg">
<path d="M18.4437 33.4468C18.1165 33.772 17.6812 33.9674 17.2194 33.9963C16.7577 34.0251 16.3012 33.8855 15.9356 33.6036L15.757 33.4468L0.556454 18.3345C0.229306 18.0092 0.0327802 17.5764 0.00374646 17.1173C-0.0252891 16.6582 0.11516 16.2044 0.398747 15.8409L0.556454 15.6633L15.757 0.551022C16.0989 0.212227 16.5577 0.0155337 17.0403 0.000881366C17.5228 -0.0137671 17.9928 0.154732 18.3549 0.472157C18.717 0.789578 18.944 1.23212 18.9898 1.7099C19.0355 2.18768 18.8967 2.66488 18.6014 3.04456L18.4437 3.22213L4.58649 16.9989L18.4437 30.7757C18.7999 31.1299 19 31.6103 19 32.1112C19 32.6121 18.7999 33.0925 18.4437 33.4468Z" fill="#85B1D6"/>
</svg>
