<svg width="26" height="26" viewBox="0 0 26 26" fill="none" xmlns="http://www.w3.org/2000/svg">
<path d="M23.8333 13V21.6667C23.8333 22.2413 23.605 22.7924 23.1986 23.1987C22.7923 23.6051 22.2412 23.8333 21.6666 23.8333H4.33325C3.75862 23.8333 3.20752 23.6051 2.80119 23.1987C2.39486 22.7924 2.16659 22.2413 2.16659 21.6667V13C1.87927 13 1.60372 12.8859 1.40055 12.6827C1.19739 12.4795 1.08325 12.204 1.08325 11.9167V8.66666C1.08325 8.09203 1.31153 7.54093 1.71785 7.1346C2.12418 6.72827 2.67528 6.5 3.24992 6.5H6.68408C6.56165 6.15196 6.49937 5.78561 6.49992 5.41666C6.49992 4.55471 6.84233 3.72806 7.45182 3.11857C8.06131 2.50907 8.88796 2.16666 9.74992 2.16666C10.8333 2.16666 11.7866 2.70833 12.3824 3.51V3.49916L12.9999 4.33333L13.6174 3.49916V3.51C14.2133 2.70833 15.1666 2.16666 16.2499 2.16666C17.1119 2.16666 17.9385 2.50907 18.548 3.11857C19.1575 3.72806 19.4999 4.55471 19.4999 5.41666C19.5005 5.78561 19.4382 6.15196 19.3158 6.5H22.7499C23.3246 6.5 23.8757 6.72827 24.282 7.1346C24.6883 7.54093 24.9166 8.09203 24.9166 8.66666V11.9167C24.9166 12.204 24.8024 12.4795 24.5993 12.6827C24.3961 12.8859 24.1206 13 23.8333 13ZM4.33325 21.6667H11.9166V13H4.33325V21.6667ZM21.6666 21.6667V13H14.0833V21.6667H21.6666ZM9.74992 4.33333C9.4626 4.33333 9.18705 4.44747 8.98389 4.65063C8.78072 4.8538 8.66658 5.12935 8.66658 5.41666C8.66658 5.70398 8.78072 5.97953 8.98389 6.1827C9.18705 6.38586 9.4626 6.5 9.74992 6.5C10.0372 6.5 10.3128 6.38586 10.516 6.1827C10.7191 5.97953 10.8333 5.70398 10.8333 5.41666C10.8333 5.12935 10.7191 4.8538 10.516 4.65063C10.3128 4.44747 10.0372 4.33333 9.74992 4.33333ZM16.2499 4.33333C15.9626 4.33333 15.687 4.44747 15.4839 4.65063C15.2807 4.8538 15.1666 5.12935 15.1666 5.41666C15.1666 5.70398 15.2807 5.97953 15.4839 6.1827C15.687 6.38586 15.9626 6.5 16.2499 6.5C16.5372 6.5 16.8128 6.38586 17.0159 6.1827C17.2191 5.97953 17.3333 5.70398 17.3333 5.41666C17.3333 5.12935 17.2191 4.8538 17.0159 4.65063C16.8128 4.44747 16.5372 4.33333 16.2499 4.33333ZM3.24992 8.66666V10.8333H11.9166V8.66666H3.24992ZM14.0833 8.66666V10.8333H22.7499V8.66666H14.0833Z" fill="#C3B0A2"/>
</svg>
