<svg width="83" height="83" viewBox="0 0 83 83" fill="none" xmlns="http://www.w3.org/2000/svg">
<g clip-path="url(#clip0)">
<path d="M46.3633 72.9492H2.43214C1.74821 72.9492 1.09766 72.662 0.636945 72.1585C0.176231 71.6527 -0.0516953 70.9783 0.0100684 70.2968L5.03497 16.8007C5.14894 15.5492 6.19843 14.5898 7.45705 14.5898H56.0899C57.3485 14.5898 58.398 15.5492 58.5119 16.8007L61.5278 50.0172C61.6275 51.1095 60.9817 52.1331 59.9558 52.5153C58.9347 52.8976 57.7711 52.5461 57.1348 51.6605C55.7669 49.7655 53.5585 48.6328 51.2266 48.6328C49.8872 48.6328 48.7949 49.7228 48.7949 51.0645V55.9277C48.7949 57.2718 47.7073 58.3594 46.3633 58.3594H43.9317V63.2227H46.3633C47.7073 63.2227 48.7949 64.3102 48.7949 65.6543V70.5176C48.7949 71.8616 47.7073 72.9492 46.3633 72.9492Z" fill="#B4A2CA"/>
<path d="M56.0899 14.5898H31.7734V72.9492H46.3633C47.7073 72.9492 48.7949 71.8616 48.7949 70.5176V65.6543C48.7949 64.3102 47.7073 63.2227 46.3633 63.2227H43.9316V58.3594H46.3633C47.7073 58.3594 48.7949 57.2718 48.7949 55.9277V51.0645C48.7949 49.7228 49.8872 48.6328 51.2266 48.6328C53.5585 48.6328 55.7669 49.7655 57.1346 51.6605C57.7711 52.5463 58.9347 52.8978 59.9557 52.5153C60.9815 52.1331 61.6273 51.1095 61.5276 50.0172L58.5118 16.8007C58.398 15.5492 57.3485 14.5898 56.0899 14.5898Z" fill="#9283A4"/>
<path d="M75.543 83H46.3633C45.0192 83 43.9316 81.9124 43.9316 80.5684V60.791C43.9316 59.447 45.0192 58.3594 46.3633 58.3594H75.543C76.887 58.3594 77.9746 59.447 77.9746 60.791V80.5684C77.9746 81.9124 76.887 83 75.543 83Z" fill="#85B1D6"/>
<path d="M75.543 58.3594H60.9531V83H75.543C76.887 83 77.9746 81.9124 77.9746 80.5684V60.791C77.9746 59.447 76.887 58.3594 75.543 58.3594Z" fill="#719DC1"/>
<path d="M70.6797 43.7695C66.6939 43.7695 63.1829 45.7226 60.9645 48.6936C58.6821 45.6169 55.0601 43.7695 51.2266 43.7695C47.204 43.7695 43.9316 47.0419 43.9316 51.0645V55.9277C43.9316 57.2718 45.0192 58.3594 46.3633 58.3594H60.9531H75.543C76.887 58.3594 77.9746 57.2718 77.9746 55.9277V51.0645C77.9746 47.0419 74.7023 43.7695 70.6797 43.7695Z" fill="#FFE6B3"/>
<path d="M70.6797 43.7695C66.6939 43.7695 63.1829 45.7226 60.9645 48.6936C60.9612 48.6892 60.9565 48.6861 60.9531 48.6818V58.3594H75.543C76.887 58.3594 77.9746 57.2718 77.9746 55.9277V51.0645C77.9746 47.0419 74.7023 43.7695 70.6797 43.7695Z" fill="#FFD580"/>
<path d="M46.3633 24.3164C45.0192 24.3164 43.9316 23.2288 43.9316 21.8848V17.0215C43.9316 10.3178 38.4794 4.86328 31.7734 4.86328C25.0675 4.86328 19.6152 10.3178 19.6152 17.0215V21.8848C19.6152 23.2288 18.5276 24.3164 17.1836 24.3164C15.8395 24.3164 14.752 23.2288 14.752 21.8848V17.0215C14.752 7.63681 22.3888 0 31.7734 0C41.1581 0 48.7949 7.63681 48.7949 17.0215V21.8848C48.7949 23.2288 47.7073 24.3164 46.3633 24.3164Z" fill="#FFE6B3"/>
<path d="M80.5684 63.2227H41.5C40.156 63.2227 39.0684 62.1351 39.0684 60.791V55.9277C39.0684 54.5837 40.156 53.4961 41.5 53.4961H80.5684C81.9124 53.4961 83 54.5837 83 55.9277V60.791C83 62.1351 81.9124 63.2227 80.5684 63.2227Z" fill="#FFD580"/>
<path d="M80.5684 53.4961H60.9531V63.2227H80.5684C81.9124 63.2227 83 62.1351 83 60.791V55.9277C83 54.5837 81.9124 53.4961 80.5684 53.4961Z" fill="#FFE6B3"/>
<path d="M43.9316 17.0215V21.8848C43.9316 23.2288 45.0192 24.3164 46.3633 24.3164C47.7073 24.3164 48.7949 23.2288 48.7949 21.8848V17.0215C48.7949 7.63681 41.1581 0 31.7734 0V4.86328C38.4794 4.86328 43.9316 10.3178 43.9316 17.0215Z" fill="#FFD580"/>
</g>
<defs>
<clipPath id="clip0">
<rect width="83" height="83" fill="white"/>
</clipPath>
</defs>
</svg>
