<svg width="75" height="75" viewBox="0 0 75 75" fill="none" xmlns="http://www.w3.org/2000/svg">
<path d="M24.0792 75H13.0792C11.4224 75 10.0791 73.6569 10.0791 72V3.00005C10.0791 1.34307 11.4224 0 13.0792 0H24.0792V75Z" fill="#44C4A1"/>
<path d="M65.9207 75H24.0791V0H65.9207C67.5776 0 68.9208 1.34307 68.9208 3.00005V72C68.9208 73.6568 67.5776 75 65.9207 75Z" fill="#3EA69B"/>
<path d="M12.0791 11.6623H8.07922C6.97463 11.6623 6.07919 10.7668 6.07919 9.66223C6.07919 8.55764 6.97463 7.6622 8.07922 7.6622H12.0793C13.1839 7.6622 14.0793 8.55764 14.0793 9.66223C14.0792 10.767 13.1837 11.6623 12.0791 11.6623Z" fill="#64798A"/>
<path d="M12.0791 22.7974H8.07922C6.97463 22.7974 6.07919 21.902 6.07919 20.7974C6.07919 19.6928 6.97463 18.7974 8.07922 18.7974H12.0793C13.1839 18.7974 14.0793 19.6928 14.0793 20.7974C14.0792 21.902 13.1837 22.7974 12.0791 22.7974Z" fill="#64798A"/>
<path d="M12.0791 33.9324H8.07922C6.97463 33.9324 6.07919 33.037 6.07919 31.9324C6.07919 30.8278 6.97463 29.9324 8.07922 29.9324H12.0793C13.1839 29.9324 14.0793 30.8278 14.0793 31.9324C14.0792 33.037 13.1837 33.9324 12.0791 33.9324Z" fill="#64798A"/>
<path d="M12.0791 45.0675H8.07922C6.97463 45.0675 6.07919 44.172 6.07919 43.0674C6.07919 41.9628 6.97463 41.0674 8.07922 41.0674H12.0793C13.1839 41.0674 14.0793 41.9628 14.0793 43.0674C14.0792 44.172 13.1837 45.0675 12.0791 45.0675Z" fill="#64798A"/>
<path d="M12.0791 56.2026H8.07922C6.97463 56.2026 6.07919 55.3072 6.07919 54.2026C6.07919 53.098 6.97463 52.2026 8.07922 52.2026H12.0793C13.1839 52.2026 14.0793 53.098 14.0793 54.2026C14.0792 55.3072 13.1837 56.2026 12.0791 56.2026Z" fill="#64798A"/>
<path d="M12.0791 67.3377H8.07922C6.97463 67.3377 6.07919 66.4422 6.07919 65.3376C6.07919 64.233 6.97463 63.3376 8.07922 63.3376H12.0793C13.1839 63.3376 14.0793 64.233 14.0793 65.3376C14.0792 66.4422 13.1837 67.3377 12.0791 67.3377Z" fill="#64798A"/>
<path d="M60.1873 35.2872H32.8126C31.708 35.2872 30.8126 34.3918 30.8126 33.2872V22.7974C30.8126 21.6928 31.708 20.7974 32.8126 20.7974H60.1875C61.2921 20.7974 62.1875 21.6928 62.1875 22.7974V33.2872C62.1873 34.3918 61.2919 35.2872 60.1873 35.2872Z" fill="#E1E6E9"/>
<path d="M36.0417 11.5042L33.4272 9.50414L30.8126 11.5042V0H36.0417V11.5042Z" fill="#FFD580"/>
<path d="M57.4999 29.0422H35.5001C34.9478 29.0422 34.5 28.5944 34.5 28.0422C34.5 27.49 34.9477 27.0422 35.5001 27.0422H57.5001C58.0523 27.0422 58.5001 27.4898 58.5001 28.0422C58.4999 28.5946 58.0523 29.0422 57.4999 29.0422Z" fill="#64798A"/>
</svg>
