<svg width="83" height="83" viewBox="0 0 83 83" fill="none" xmlns="http://www.w3.org/2000/svg">
<path d="M67.4375 73.1113H21.8848C20.5419 73.1113 19.4531 72.0226 19.4531 70.6797C19.4531 69.3368 20.5419 68.248 21.8848 68.248H67.4375C68.7783 68.248 69.8691 67.1572 69.8691 65.8164C69.8691 64.4756 68.7783 63.3848 67.4375 63.3848H60.9531C56.9307 63.3848 53.6582 60.1123 53.6582 56.0898V51.2266C53.6582 49.8836 54.7469 48.7949 56.0898 48.7949C57.4328 48.7949 58.5215 49.8836 58.5215 51.2266V56.0898C58.5215 57.4307 59.6123 58.5215 60.9531 58.5215H67.4375C71.4599 58.5215 74.7324 61.794 74.7324 65.8164C74.7324 69.8388 71.4599 73.1113 67.4375 73.1113Z" fill="#DAEFFB"/>
<path d="M67.4375 58.5215H60.9531C59.6123 58.5215 58.5215 57.4307 58.5215 56.0898V51.2266C58.5215 49.8836 57.4328 48.7949 56.0898 48.7949C54.7469 48.7949 53.6582 49.8836 53.6582 51.2266V56.0898C53.6582 60.1123 56.9307 63.3848 60.9531 63.3848H67.4375C68.7783 63.3848 69.8691 64.4756 69.8691 65.8164C69.8691 67.1572 68.7783 68.248 67.4375 68.248H41.5V73.1113H67.4375C71.4599 73.1113 74.7324 69.8388 74.7324 65.8164C74.7324 61.794 71.4599 58.5215 67.4375 58.5215Z" fill="#85B1D6"/>
<path d="M23.5059 58.5215H21.8848L18.6426 70.6797L25.2891 73.9219L35.6641 70.6797C35.6641 63.9757 30.2099 58.5215 23.5059 58.5215Z" fill="#00465F"/>
<path d="M21.8848 82.8379H23.5059C30.2099 82.8379 35.6641 77.3837 35.6641 70.6797H18.6426L21.8848 82.8379Z" fill="#002C3C"/>
<path d="M80.5684 6.64648H2.43164C1.08873 6.64648 0 7.73521 0 9.07812V51.2266C0 52.5695 1.08873 53.6582 2.43164 53.6582H80.5684C81.9113 53.6582 83 52.5695 83 51.2266V9.07812C83 7.73521 81.9113 6.64648 80.5684 6.64648Z" fill="#FFE6B3"/>
<path d="M80.5684 6.64648H41.5V53.6582H80.5684C81.9113 53.6582 83 52.5695 83 51.2266V9.07812C83 7.73521 81.9113 6.64648 80.5684 6.64648Z" fill="#FFD580"/>
<path d="M70.8418 0.162109H49.6055C46.0117 0.162109 42.91 2.30049 41.5 5.37068C40.09 2.30049 36.9883 0.162109 33.3945 0.162109H12.1582C10.8153 0.162109 9.72656 1.25084 9.72656 2.59375V41.5L41.5 47.6602L73.2734 41.5V2.59375C73.2734 1.25084 72.1847 0.162109 70.8418 0.162109Z" fill="#DAEFFB"/>
<path d="M70.8418 0.162109H49.6055C46.0117 0.162109 42.91 2.30049 41.5 5.37068V47.6602L73.2734 41.5V2.59375C73.2734 1.25084 72.1847 0.162109 70.8418 0.162109Z" fill="#A2D8F4"/>
<path d="M70.8418 39.0684H49.6055C46.0117 39.0684 42.91 41.2067 41.5 44.2769C40.09 41.2067 36.9883 39.0684 33.3945 39.0684H12.1582C10.8153 39.0684 9.72656 40.1571 9.72656 41.5V46.3633C9.72656 47.7062 10.8153 48.7949 12.1582 48.7949H70.8418C72.1847 48.7949 73.2734 47.7062 73.2734 46.3633V41.5C73.2734 40.1571 72.1847 39.0684 70.8418 39.0684Z" fill="#85B1D6"/>
<path d="M73.2734 41.5C73.2734 40.1571 72.1847 39.0684 70.8418 39.0684H49.6055C46.0117 39.0684 42.91 41.2067 41.5 44.2769V48.7949H70.8418C72.1847 48.7949 73.2734 47.7062 73.2734 46.3633V41.5Z" fill="#85B1D6"/>
<path d="M31.3682 14.752H19.8584C18.5155 14.752 17.4268 13.6632 17.4268 12.3203C17.4268 10.9774 18.5155 9.88867 19.8584 9.88867H31.3682C32.7111 9.88867 33.7998 10.9774 33.7998 12.3203C33.7998 13.6632 32.7111 14.752 31.3682 14.752Z" fill="#00607F"/>
<path d="M31.3682 24.4785H19.8584C18.5155 24.4785 17.4268 23.3898 17.4268 22.0469C17.4268 20.704 18.5155 19.6152 19.8584 19.6152H31.3682C32.7111 19.6152 33.7998 20.704 33.7998 22.0469C33.7998 23.3898 32.7111 24.4785 31.3682 24.4785Z" fill="#00607F"/>
<path d="M31.3682 34.2051H19.8584C18.5155 34.2051 17.4268 33.1164 17.4268 31.7734C17.4268 30.4305 18.5155 29.3418 19.8584 29.3418H31.3682C32.7111 29.3418 33.7998 30.4305 33.7998 31.7734C33.7998 33.1164 32.7111 34.2051 31.3682 34.2051Z" fill="#00607F"/>
<path d="M62.3311 24.4785H52.4424C51.0995 24.4785 50.0107 23.3898 50.0107 22.0469V12.3203C50.0107 10.9774 51.0995 9.88867 52.4424 9.88867H62.3311C63.674 9.88867 64.7627 10.9774 64.7627 12.3203V22.0469C64.7627 23.3898 63.674 24.4785 62.3311 24.4785Z" fill="#3EA69B"/>
<path d="M62.3311 34.2051H52.4424C51.0995 34.2051 50.0107 33.1164 50.0107 31.7734C50.0107 30.4305 51.0995 29.3418 52.4424 29.3418H62.3311C63.674 29.3418 64.7627 30.4305 64.7627 31.7734C64.7627 33.1164 63.674 34.2051 62.3311 34.2051Z" fill="#00465F"/>
<path d="M8.91602 58.5215C3.99972 58.5215 0 62.5212 0 67.4375V73.9219C0 78.8382 3.99972 82.8379 8.91602 82.8379H21.8848V58.5215H8.91602Z" fill="#00607F"/>
</svg>
