<svg width="83" height="61" viewBox="0 0 83 61" fill="none" xmlns="http://www.w3.org/2000/svg">
<path d="M77.2759 0.448273H5.72414C2.56278 0.448273 0 3.01106 0 6.17241V54.8276C0 57.9889 2.56278 60.5517 5.72414 60.5517H77.2759C80.4372 60.5517 83 57.9889 83 54.8276V6.17241C83 3.01106 80.4372 0.448273 77.2759 0.448273Z" fill="#9283A4"/>
<path d="M51.5172 21.9138V26.2069C51.5125 27.7856 50.2339 29.0642 48.6552 29.069H34.3448C32.7661 29.0642 31.4875 27.7856 31.4828 26.2069V21.9138H51.5172Z" fill="#C3B0A2"/>
<path d="M17.1724 34.7931H10.0173C8.43657 34.7931 7.15518 36.0745 7.15518 37.6552C7.15518 39.2358 8.43657 40.5172 10.0173 40.5172H17.1724C18.7531 40.5172 20.0345 39.2358 20.0345 37.6552C20.0345 36.0745 18.7531 34.7931 17.1724 34.7931Z" fill="#B4A2CA"/>
<path d="M35.7759 34.7931H28.6207C27.04 34.7931 25.7586 36.0745 25.7586 37.6552C25.7586 39.2358 27.04 40.5172 28.6207 40.5172H35.7759C37.3566 40.5172 38.6379 39.2358 38.6379 37.6552C38.6379 36.0745 37.3566 34.7931 35.7759 34.7931Z" fill="#B4A2CA"/>
<path d="M54.3793 34.7931H47.2242C45.6435 34.7931 44.3621 36.0745 44.3621 37.6552C44.3621 39.2358 45.6435 40.5172 47.2242 40.5172H54.3793C55.96 40.5172 57.2414 39.2358 57.2414 37.6552C57.2414 36.0745 55.96 34.7931 54.3793 34.7931Z" fill="#B4A2CA"/>
<path d="M72.9828 34.7931H65.8276C64.2469 34.7931 62.9655 36.0745 62.9655 37.6552C62.9655 39.2358 64.2469 40.5172 65.8276 40.5172H72.9828C74.5634 40.5172 75.8448 39.2358 75.8448 37.6552C75.8448 36.0745 74.5634 34.7931 72.9828 34.7931Z" fill="#B4A2CA"/>
<path d="M32.9138 49.1034H7.15516C6.36482 49.1034 5.72412 48.4627 5.72412 47.6724C5.72412 46.8821 6.36482 46.2414 7.15516 46.2414H32.9138C33.7041 46.2414 34.3448 46.8821 34.3448 47.6724C34.3448 48.4627 33.7041 49.1034 32.9138 49.1034Z" fill="#FFD580"/>
<path d="M21.4655 54.8276H7.15516C6.36482 54.8276 5.72412 54.1869 5.72412 53.3966C5.72412 52.6062 6.36482 51.9655 7.15516 51.9655H21.4655C22.2558 51.9655 22.8965 52.6062 22.8965 53.3966C22.8965 54.1869 22.2558 54.8276 21.4655 54.8276Z" fill="#FFD580"/>
<path d="M53.5923 16.0752L51.5173 23.3448H31.4828L29.4078 16.0752L31.3254 14.2291L37.2069 16.1896L40.0261 11.4815H42.974L45.7931 16.1896L51.6747 14.2291L53.5923 16.0752Z" fill="#FFD580"/>
<path d="M31.4828 13.3276C31.4816 13.6348 31.4284 13.9397 31.3253 14.2291C30.8402 15.6221 29.367 16.4095 27.9393 16.0388C26.5115 15.6681 25.6074 14.2636 25.8611 12.8105C26.1148 11.3575 27.4414 10.3424 28.9103 10.4775C30.3791 10.6126 31.4983 11.8526 31.4828 13.3276Z" fill="#FFE6B3"/>
<path d="M44.3621 9.03446C44.3599 10.037 43.8333 10.9652 42.974 11.4815C42.5326 11.7582 42.0209 11.9023 41.5 11.8965C39.9193 11.8965 38.6379 10.6151 38.6379 9.03446C38.6379 7.45379 39.9193 6.17239 41.5 6.17239C43.0807 6.17239 44.3621 7.45379 44.3621 9.03446Z" fill="#FFE6B3"/>
<path d="M57.2414 13.3276C57.2367 14.9063 55.958 16.1849 54.3793 16.1897C53.1503 16.1846 52.0618 15.3956 51.6747 14.2291C51.5716 13.9397 51.5184 13.6348 51.5172 13.3276C51.5172 11.7469 52.7986 10.4655 54.3793 10.4655C55.96 10.4655 57.2414 11.7469 57.2414 13.3276Z" fill="#FFE6B3"/>
</svg>
