<svg width="25" height="24" viewBox="0 0 25 24" fill="none" xmlns="http://www.w3.org/2000/svg">
<path d="M23.7176 8.9999L16.527 7.95488L13.3127 1.43838C13.2249 1.25996 13.0804 1.11553 12.902 1.02773C12.4546 0.806834 11.9108 0.990916 11.6871 1.43838L8.47273 7.95488L1.2822 8.9999C1.08396 9.02822 0.90271 9.12168 0.76394 9.26328C0.596175 9.43571 0.503729 9.6677 0.506916 9.90825C0.510102 10.1488 0.608659 10.3783 0.780932 10.5462L5.98337 15.6184L4.75427 22.7806C4.72545 22.9472 4.74389 23.1185 4.80749 23.2752C4.8711 23.4319 4.97733 23.5676 5.11413 23.6669C5.25094 23.7663 5.41285 23.8253 5.58151 23.8374C5.75016 23.8494 5.91881 23.8139 6.06833 23.735L12.4999 20.3535L18.9314 23.735C19.107 23.8284 19.3109 23.8596 19.5063 23.8256C19.9991 23.7406 20.3304 23.2733 20.2455 22.7806L19.0164 15.6184L24.2188 10.5462C24.3604 10.4074 24.4539 10.2262 24.4822 10.0279C24.5587 9.53232 24.2132 9.07353 23.7176 8.9999Z" fill="#E9E9E9"/>
</svg>
