<svg width="19" height="34" viewBox="0 0 19 34" fill="none" xmlns="http://www.w3.org/2000/svg">
<path d="M0.556314 0.553227C0.883492 0.227978 1.3188 0.0325924 1.78056 0.00372558C2.24233 -0.0251412 2.69882 0.114495 3.0644 0.396436L3.24301 0.553227L18.4435 15.6656C18.7707 15.9908 18.9672 16.4236 18.9963 16.8827C19.0253 17.3418 18.8848 17.7956 18.6013 18.1591L18.4435 18.3367L3.24301 33.449C2.90108 33.7878 2.44226 33.9845 1.95973 33.9991C1.47721 34.0138 1.00717 33.8453 0.645087 33.5278C0.283 33.2104 0.0560157 32.7679 0.0102362 32.2901C-0.0355432 31.8123 0.103315 31.3351 0.398608 30.9554L0.556314 30.7779L14.4135 17.0011L0.556314 3.22433C0.200107 2.87008 0 2.38968 0 1.88878C0 1.38787 0.200107 0.907474 0.556314 0.553227Z" fill="#85B1D6"/>
</svg>
