<svg width="22" height="22" viewBox="0 0 22 22" fill="none" xmlns="http://www.w3.org/2000/svg">
<path d="M11 7.35507C8.99298 7.35507 7.35509 8.99296 7.35509 11C7.35509 13.007 8.99298 14.6449 11 14.6449C13.007 14.6449 14.6449 13.007 14.6449 11C14.6449 8.99296 13.007 7.35507 11 7.35507ZM21.932 11C21.932 9.49062 21.9457 7.99492 21.8609 6.48828C21.7762 4.73828 21.377 3.18515 20.0973 1.90546C18.8149 0.623042 17.2645 0.226558 15.5145 0.141792C14.0051 0.0570267 12.5094 0.0706986 11.0027 0.0706986C9.49337 0.0706986 7.99766 0.0570267 6.49102 0.141792C4.74102 0.226558 3.1879 0.625777 1.90821 1.90546C0.625789 3.18789 0.229305 4.73828 0.144539 6.48828C0.0597732 7.99765 0.0734452 9.49335 0.0734452 11C0.0734452 12.5066 0.0597732 14.0051 0.144539 15.5117C0.229305 17.2617 0.628523 18.8148 1.90821 20.0945C3.19063 21.3769 4.74102 21.7734 6.49102 21.8582C8.0004 21.943 9.4961 21.9293 11.0027 21.9293C12.5121 21.9293 14.0078 21.943 15.5145 21.8582C17.2645 21.7734 18.8176 21.3742 20.0973 20.0945C21.3797 18.8121 21.7762 17.2617 21.8609 15.5117C21.9484 14.0051 21.932 12.5094 21.932 11ZM11 16.6082C7.89649 16.6082 5.3918 14.1035 5.3918 11C5.3918 7.89648 7.89649 5.39179 11 5.39179C14.1035 5.39179 16.6082 7.89648 16.6082 11C16.6082 14.1035 14.1035 16.6082 11 16.6082ZM16.8379 6.47187C16.1133 6.47187 15.5281 5.88671 15.5281 5.1621C15.5281 4.43749 16.1133 3.85234 16.8379 3.85234C17.5625 3.85234 18.1477 4.43749 18.1477 5.1621C18.1479 5.33417 18.1142 5.50458 18.0484 5.66359C17.9827 5.82259 17.8862 5.96706 17.7645 6.08873C17.6429 6.2104 17.4984 6.30686 17.3394 6.37261C17.1804 6.43836 17.01 6.47209 16.8379 6.47187Z" fill="#B4A2CA"/>
</svg>
