<svg width="23" height="22" viewBox="0 0 23 22" fill="none" xmlns="http://www.w3.org/2000/svg">
<path d="M3.23654 0C1.44369 0 0 1.38092 0 3.09582V18.9042C0 20.6191 1.44369 22 3.23654 22H19.7635C21.5563 22 23 20.6191 23 18.9042V3.09582C23 1.38092 21.5563 0 19.7635 0H3.23654ZM12.0154 2.24814C14.6255 2.24814 16.7476 4.27882 16.7476 6.77532C16.7476 9.27161 14.6255 11.3011 12.0154 11.3011C9.40516 11.3011 7.28166 9.27161 7.28166 6.77532C7.28166 4.27882 9.40514 2.24814 12.0154 2.24814ZM11.965 4.90052C10.9078 4.92626 10.0553 5.75817 10.0553 6.77534C10.0553 7.80822 10.9348 8.64877 12.0154 8.64877C13.0957 8.64877 13.9739 7.80822 13.9739 6.77534C13.9739 5.74204 13.0956 4.90052 12.0154 4.90052C11.9985 4.90052 11.9818 4.9001 11.965 4.90052ZM8.09671 11.4552C8.34741 11.456 8.60034 11.5219 8.82841 11.6593C10.7657 12.8245 13.263 12.8253 15.2009 11.6593C15.8497 11.2685 16.7049 11.4561 17.1134 12.0767C17.5216 12.6962 17.3255 13.5152 16.6772 13.9054C15.8318 14.4136 14.9028 14.7816 13.9294 14.9937L16.5758 17.5251C17.1176 18.0422 17.1176 18.8827 16.5758 19.4006C16.0338 19.9187 15.1569 19.9187 14.6158 19.4006L12.0139 16.9132L9.41491 19.4006C9.14427 19.6596 8.78915 19.789 8.43454 19.789C8.07955 19.789 7.72563 19.6592 7.45416 19.4006C6.91249 18.8824 6.91265 18.0433 7.45416 17.5251L10.0992 14.9937C9.13597 14.7837 8.20658 14.419 7.35066 13.9054C6.70358 13.5152 6.509 12.697 6.91725 12.0767C7.17168 11.6888 7.6015 11.4698 8.04641 11.4558C8.06318 11.4553 8.07996 11.4551 8.09674 11.4552H8.09671Z" fill="#B4A2CA"/>
</svg>
