<svg width="23" height="22" viewBox="0 0 23 22" fill="none" xmlns="http://www.w3.org/2000/svg">
<path d="M18.561 2.442V9.328H17.089V8.558C16.5217 9.13 15.9543 9.416 15.387 9.416C14.697 9.416 14.352 9.00533 14.352 8.184V2.442H15.824V7.722C15.824 8.03 15.9543 8.184 16.215 8.184C16.4757 8.184 16.767 8.008 17.089 7.656V2.442H18.561ZM13.11 4.048V7.612C13.11 8.228 12.9183 8.69733 12.535 9.02C12.1517 9.34267 11.6303 9.504 10.971 9.504C10.3423 9.504 9.83249 9.33167 9.44149 8.987C9.05049 8.64233 8.85499 8.17667 8.85499 7.59V4.026C8.85499 3.454 9.06583 3.01767 9.48749 2.717C9.90916 2.41633 10.4267 2.266 11.04 2.266C11.6227 2.266 12.1133 2.42733 12.512 2.75C12.9107 3.07267 13.11 3.50533 13.11 4.048ZM11.615 7.722V3.96C11.615 3.81333 11.546 3.69233 11.408 3.597C11.27 3.50167 11.1243 3.454 10.971 3.454C10.8177 3.454 10.6797 3.50167 10.557 3.597C10.4343 3.69233 10.373 3.81333 10.373 3.96V7.722C10.373 8.10333 10.5723 8.294 10.971 8.294C11.4003 8.294 11.615 8.10333 11.615 7.722ZM7.245 0H8.92399L7.65899 3.63C7.59766 3.806 7.521 4.00767 7.429 4.235C7.337 4.46233 7.25649 4.66767 7.18749 4.851C7.11849 5.03433 7.061 5.236 7.015 5.456V9.328H5.359V5.632C5.32833 5.456 5.106 4.83267 4.692 3.762L3.381 0H5.06L6.118 3.718H6.233L7.245 0ZM21.298 16.258C21.298 16.9767 21.252 18.04 21.16 19.448C21.0987 20.1813 20.8035 20.7643 20.2745 21.197C19.7455 21.6297 19.0977 21.8607 18.331 21.89C16.813 21.9633 14.536 22 11.5 22C8.44866 22 6.17166 21.9633 4.669 21.89C3.90233 21.8607 3.2545 21.6297 2.7255 21.197C2.1965 20.7643 1.90133 20.1813 1.84 19.448C1.748 18.04 1.702 16.9767 1.702 16.258C1.702 15.5393 1.748 14.476 1.84 13.068C1.90133 12.3347 2.1965 11.7517 2.7255 11.319C3.2545 10.8863 3.90233 10.6553 4.669 10.626C6.17166 10.5527 8.44866 10.516 11.5 10.516C14.5513 10.516 16.8283 10.5527 18.331 10.626C19.0977 10.6553 19.7455 10.8863 20.2745 11.319C20.8035 11.7517 21.0987 12.3347 21.16 13.068C21.252 14.476 21.298 15.5393 21.298 16.258ZM19.665 18.26V17.842H18.446C18.446 17.8713 18.4498 17.9667 18.4575 18.128C18.4652 18.2893 18.4652 18.403 18.4575 18.469C18.4498 18.535 18.4307 18.6193 18.4 18.722C18.3693 18.8247 18.3157 18.898 18.239 18.942C18.1623 18.986 18.055 19.008 17.917 19.008C17.7637 19.008 17.6448 18.964 17.5605 18.876C17.4762 18.788 17.4302 18.7 17.4225 18.612C17.4148 18.524 17.411 18.3993 17.411 18.238V17.182H19.665V15.774C19.665 15.2607 19.5193 14.8573 19.228 14.564C18.9367 14.2707 18.5227 14.124 17.986 14.124C17.4647 14.124 17.0315 14.2743 16.6865 14.575C16.3415 14.8757 16.169 15.2753 16.169 15.774V18.26C16.169 18.788 16.3185 19.2097 16.6175 19.525C16.9165 19.8403 17.342 19.998 17.894 19.998C19.0747 19.998 19.665 19.4187 19.665 18.26ZM15.272 18.678V15.598C15.272 14.674 14.8887 14.212 14.122 14.212C13.7387 14.212 13.386 14.3807 13.064 14.718V12.298H11.868V19.844H13.064V19.404C13.4013 19.7413 13.777 19.91 14.191 19.91C14.9117 19.91 15.272 19.4993 15.272 18.678ZM9.52199 19.844H10.695V14.278H9.52199V18.502C9.26133 18.7807 9.02366 18.92 8.80899 18.92C8.60966 18.92 8.50999 18.7953 8.50999 18.546V14.278H7.31399V18.964C7.31399 19.6093 7.58999 19.932 8.14199 19.932C8.60199 19.932 9.06199 19.6973 9.52199 19.228V19.844ZM5.934 13.398H7.337V12.298H3.22V13.398H4.6V19.844H5.934V13.398ZM18.446 15.708V16.324H17.411V15.708C17.411 15.312 17.5873 15.114 17.94 15.114C18.2773 15.114 18.446 15.312 18.446 15.708ZM14.053 15.642V18.568C14.053 18.876 13.915 19.03 13.639 19.03C13.4243 19.03 13.2327 18.9493 13.064 18.788V15.312C13.2173 15.1653 13.386 15.092 13.57 15.092C13.892 15.092 14.053 15.2753 14.053 15.642Z" fill="#B4A2CA"/>
</svg>
