<svg width="20" height="16" viewBox="0 0 20 16" fill="none" xmlns="http://www.w3.org/2000/svg">
<path d="M18.9375 6.53906H16.6172V4.09844C16.6172 3.71816 16.31 3.41094 15.9297 3.41094H9.16211L6.64199 1.00039C6.60993 0.970372 6.56775 0.953502 6.52383 0.953125H1.0625C0.682227 0.953125 0.375 1.26035 0.375 1.64062V14.3594C0.375 14.7396 0.682227 15.0469 1.0625 15.0469H16.0586C16.3379 15.0469 16.5914 14.8771 16.6967 14.6172L19.5756 7.48438C19.6078 7.40273 19.625 7.31465 19.625 7.22656C19.625 6.84629 19.3178 6.53906 18.9375 6.53906ZM15.0703 6.53906H4.11328C3.83398 6.53906 3.58047 6.70879 3.4752 6.96875L1.92188 10.8188V2.5H5.97168L8.54121 4.95781H15.0703V6.53906Z" fill="white"/>
</svg>
