<svg width="15" height="15" viewBox="0 0 15 15" fill="none" xmlns="http://www.w3.org/2000/svg">
<path d="M8.81005 4.97049C9.22876 5.67357 10.6528 6.68797 12.0175 6.94277C10.9928 9.30592 8.90916 10.9245 6.58075 11.7971C6.61725 10.7349 6.41239 9.6945 6.11873 9.19889C5.50026 8.16089 3.72264 8.16261 2.14213 9.20295C0.561995 10.2434 -0.219176 11.9272 0.396229 12.9644C1.01133 14.0027 3.80977 15.7169 5.39181 14.677C5.4448 14.6411 5.49179 14.5965 5.54222 14.5553C6.11546 14.5358 6.74842 14.2551 7.26986 14.0704C9.99499 13.1056 12.4468 11.1536 13.846 8.48857C14.2264 7.76072 14.7537 6.66311 14.5552 5.78462C15.268 4.34451 15.0215 2.02739 14.5317 1.20349C13.9148 0.164869 12.1362 0.168239 10.5545 1.20759C8.9755 2.24836 8.19391 3.93143 8.81005 4.97049Z" fill="#85B1D6"/>
<path d="M8.6223 4.54252C9.04223 5.24724 10.4655 6.26076 11.831 6.51538C10.8064 8.87984 8.72301 10.4982 6.39428 11.3697C6.43054 10.3076 6.22586 9.26817 5.93253 8.772C5.31393 7.73376 3.53603 7.73497 1.95559 8.77662C0.375245 9.81549 -0.405647 11.4998 0.210981 12.5386C0.826004 13.5756 3.62389 15.2888 5.20544 14.2492C5.25885 14.214 5.30584 14.1695 5.35641 14.1285C5.92917 14.1093 6.56261 13.8283 7.08406 13.6436C9.80918 12.6788 12.26 10.7261 13.659 8.06147C14.0408 7.33486 14.5677 6.23648 14.3683 5.35752C15.0822 3.91773 14.8354 1.60076 14.3448 0.776392C13.7287 -0.261356 11.9498 -0.25784 10.3686 0.78122C8.78945 1.82173 8.00716 3.50352 8.6223 4.54252Z" fill="#85B1D6"/>
</svg>
